<svg width="148" height="90" viewBox="0 0 148 90" fill="none" xmlns="http://www.w3.org/2000/svg">
<path d="M52.2058 37.0768C70.1083 47.2971 74.9035 72.6566 74.9035 72.6566C74.9035 72.6566 50.6735 81.4462 32.771 71.2259C14.8685 61.0057 10.0734 35.6461 10.0734 35.6461C10.0734 35.6461 34.3034 26.8565 52.2058 37.0768Z" fill="#C5DFFC"/>
<path d="M95.7974 37.0749C77.8944 47.2942 73.0978 72.6535 73.0978 72.6535C73.0978 72.6535 97.3273 81.4443 115.23 71.2251C133.133 61.0058 137.93 35.6465 137.93 35.6465C137.93 35.6465 113.7 26.8556 95.7974 37.0749Z" fill="#00386A"/>
<path d="M72.8313 31.0749C84.011 48.4151 76.5935 73.1364 76.5935 73.1364C76.5935 73.1364 51.0506 69.7434 39.8712 52.4031C28.6919 35.0627 36.109 10.3416 36.109 10.3416C36.109 10.3416 61.6519 13.7346 72.8313 31.0749Z" fill="#77B8F8"/>
<path d="M76.6711 31.2327C65.4911 48.5724 72.9079 73.294 72.9079 73.294C72.9079 73.294 98.4509 69.9018 109.631 52.5618C120.811 35.2218 113.394 10.5002 113.394 10.5002C113.394 10.5002 87.8513 13.8926 76.6711 31.2327Z" fill="#044B92"/>
<path d="M94.5968 37.5221C94.5968 58.1662 74.9791 74.9013 74.9791 74.9013C74.9791 74.9013 55.3613 58.1662 55.3613 37.5221C55.3613 16.878 74.9791 0.142944 74.9791 0.142944C74.9791 0.142944 94.5968 16.8783 94.5968 37.5221Z" fill="#0A66C2"/>
</svg>
